<?xml version="1.0" standalone="no"?>
<!DOCTYPE svg PUBLIC "-//W3C//DTD SVG 20010904//EN"
 "http://www.w3.org/TR/2001/REC-SVG-20010904/DTD/svg10.dtd">
<svg version="1.0" xmlns="http://www.w3.org/2000/svg"
 width="184.000000pt" height="184.000000pt" viewBox="0 0 184.000000 184.000000"
 preserveAspectRatio="xMidYMid meet">
<rect width="100%" rx='15' height="100%" fill="#60DCBC"/>
<g transform="translate(0.000000,184.000000) scale(0.100000,-0.100000)"
fill="#000000" stroke="none">
<path d="M290 1415 l0 -135 35 0 34 0 3 98 3 97 98 3 97 3 0 34 0 35 -135 0
-135 0 0 -135z"/>
<path d="M1280 1515 l0 -34 98 -3 97 -3 3 -97 3 -98 34 0 35 0 0 135 0 135
-135 0 -135 0 0 -35z"/>
<path d="M640 1135 l0 -155 80 0 79 0 3 78 3 77 198 3 197 2 0 75 0 75 -280 0
-280 0 0 -155z"/>
<path d="M640 730 l0 -180 80 0 79 0 3 103 3 102 143 3 142 3 0 74 0 75 -225
0 -225 0 0 -180z"/>
<path d="M290 415 l0 -135 135 0 135 0 0 40 0 40 -100 0 -100 0 0 95 0 95 -35
0 -35 0 0 -135z"/>
<path d="M1480 455 l0 -95 -100 0 -100 0 0 -40 0 -40 135 0 135 0 0 135 0 135
-35 0 -35 0 0 -95z"/>
</g>
</svg>
