<?xml version="1.0" encoding="UTF-8" standalone="no"?>
<svg xmlns="http://www.w3.org/2000/svg" version="1.2" baseProfile="tiny" height="1883" width="984" viewBox="0 0 984 1883"><g stroke-linejoin="round" stroke-linecap="round" fill="none" stroke="black"><path stroke-width="18" d="M236,1416c0,0 0,0 0,0 "/><path stroke-width="21" d="M236,1416c0,0 0,0 0,0 "/><path stroke-width="20" d="M236,1416c-1,-1 -1,-1 -2,-2 "/><path stroke-width="17" d="M234,1414c-2,-2 -2,-2 -4,-5 "/><path stroke-width="12" d="M230,1409c-9,-11 -9,-12 -19,-23 "/><path stroke-width="9" d="M211,1386c-14,-16 -13,-17 -28,-31 -13,-11 -13,-12 -28,-19 -13,-6 -14,-6 -27,-6 -16,1 -18,1 -32,9 -17,10 -18,12 -31,28 -12,16 -11,17 -19,36 -6,14 -6,14 -10,29 -5,20 -5,20 -7,40 -3,34 -5,35 -3,69 3,57 0,59 13,114 9,39 11,40 31,74 14,21 16,21 37,36 17,13 19,13 40,20 20,5 22,6 42,4 20,-2 22,-3 38,-14 16,-11 17,-13 27,-30 12,-19 11,-21 17,-43 6,-23 5,-24 7,-48 1,-21 1,-21 0,-43 -2,-18 -4,-21 -7,-36 "/><path stroke-width="13" d="M207,1247c0,0 0,0 0,0 "/><path stroke-width="19" d="M207,1247c0,0 0,0 0,0 1,2 1,2 2,5 "/><path stroke-width="14" d="M209,1252c3,6 3,6 6,13 "/><path stroke-width="10" d="M215,1265c10,20 10,21 20,41 "/><path stroke-width="9" d="M235,1306c14,27 14,27 28,55 14,27 14,27 28,54 15,29 15,29 31,57 15,28 15,28 33,56 13,21 13,21 28,42 9,13 10,13 20,26 5,6 5,6 11,12 "/><path stroke-width="12" d="M414,1608c2,3 2,2 4,5 "/><path stroke-width="16" d="M418,1613c0,1 0,2 -1,2 "/><path stroke-width="17" d="M417,1615c-2,0 -2,0 -4,-1 "/><path stroke-width="15" d="M413,1614c-5,-2 -5,-2 -8,-6 "/><path stroke-width="11" d="M405,1608c-9,-8 -9,-8 -16,-17 "/><path stroke-width="9" d="M389,1591c-11,-13 -11,-13 -21,-28 -11,-17 -11,-17 -22,-35 -12,-19 -12,-19 -22,-38 -10,-19 -10,-19 -18,-39 -7,-17 -7,-17 -10,-35 -4,-15 -4,-15 -4,-31 -1,-11 0,-12 2,-23 "/><path stroke-width="10" d="M294,1362c1,-7 2,-7 5,-14 "/><path stroke-width="11" d="M299,1348c3,-5 3,-5 7,-9 "/><path stroke-width="13" d="M306,1339c4,-3 4,-4 9,-5 "/><path stroke-width="12" d="M315,1334c7,-1 8,-1 15,0 "/><path stroke-width="10" d="M330,1334c9,2 9,2 17,5 11,5 11,5 20,12 "/><path stroke-width="9" d="M367,1351c11,7 11,7 20,16 11,11 11,12 20,24 11,14 11,14 20,29 10,15 10,15 19,31 8,15 8,16 17,31 8,14 7,14 16,28 8,12 8,12 18,23 3,4 3,4 7,7 "/><path stroke-width="14" d="M430,1252c0,0 0,0 0,0 "/><path stroke-width="20" d="M430,1252c0,0 0,0 0,0 "/><path stroke-width="21" d="M430,1252c0,0 0,0 0,0 0,0 0,0 0,0 "/><path stroke-width="19" d="M430,1252c0,2 0,2 1,4 "/><path stroke-width="13" d="M431,1256c10,15 11,15 22,29 "/><path stroke-width="9" d="M453,1285c22,28 22,27 45,55 18,23 18,23 37,46 12,15 12,15 24,30 7,10 7,10 14,21 "/><path stroke-width="10" d="M573,1437c3,5 3,5 5,10 "/><path stroke-width="14" d="M578,1447c1,2 1,3 0,5 "/><path stroke-width="17" d="M578,1452c0,1 0,2 0,2 "/><path stroke-width="18" d="M578,1454c-2,1 -2,1 -4,0 "/><path stroke-width="15" d="M574,1454c-5,-3 -5,-3 -9,-8 "/><path stroke-width="11" d="M565,1446c-14,-15 -14,-15 -26,-31 "/><path stroke-width="9" d="M539,1415c-19,-28 -19,-28 -36,-57 -19,-32 -19,-32 -37,-65 -14,-26 -15,-26 -27,-54 -9,-19 -9,-19 -14,-39 -3,-13 -4,-14 -3,-27 1,-11 1,-12 6,-21 5,-9 7,-9 15,-16 4,-3 5,-2 9,-4 "/><path stroke-width="14" d="M510,1083c0,0 0,0 0,0 "/><path stroke-width="20" d="M510,1083c0,0 0,0 0,0 "/><path stroke-width="16" d="M510,1083c3,7 3,7 7,13 "/><path stroke-width="10" d="M517,1096c16,24 15,25 32,47 "/><path stroke-width="9" d="M549,1143c23,30 24,30 48,59 19,22 19,22 39,44 16,17 16,17 33,35 10,10 10,10 21,20 6,5 6,5 12,10 "/><path stroke-width="13" d="M548,972c0,0 0,0 0,0 "/><path stroke-width="19" d="M548,972c0,0 0,0 0,0 "/><path stroke-width="20" d="M548,972c0,1 0,1 0,1 "/><path stroke-width="15" d="M548,973c0,8 -1,8 0,16 "/><path stroke-width="10" d="M548,989c1,21 0,21 3,41 "/><path stroke-width="9" d="M551,1030c3,20 2,21 9,40 3,11 3,12 10,20 6,6 7,7 15,8 "/><path stroke-width="10" d="M585,1098c10,1 11,0 21,-4 "/><path stroke-width="9" d="M606,1094c13,-6 13,-7 25,-15 14,-9 12,-11 27,-19 14,-8 14,-10 30,-13 14,-3 16,-3 29,1 14,4 14,5 25,15 10,8 11,9 17,21 6,12 6,13 6,26 1,14 -1,15 -5,28 -5,17 -5,17 -13,32 -9,16 -9,17 -20,31 -10,13 -10,16 -24,24 -13,8 -18,4 -30,7 "/><path stroke-width="13" d="M476,637c0,0 0,0 0,0 "/><path stroke-width="19" d="M476,637c0,0 0,0 0,0 "/><path stroke-width="21" d="M476,637c0,0 0,0 0,0 0,0 0,0 0,0 "/><path stroke-width="20" d="M476,637c1,1 1,1 1,1 "/><path stroke-width="15" d="M477,638c6,7 6,7 12,14 "/><path stroke-width="10" d="M489,652c19,23 18,23 38,45 "/><path stroke-width="9" d="M527,697c25,31 25,31 51,61 27,29 27,30 55,58 29,31 29,31 60,59 29,28 30,27 61,54 22,19 23,19 46,39 20,19 25,24 40,38 "/><path stroke-width="12" d="M587,956c0,0 0,0 0,0 "/><path stroke-width="18" d="M587,956c0,0 0,0 0,0 "/><path stroke-width="21" d="M587,956c0,0 0,0 0,0 "/><path stroke-width="19" d="M587,956c1,-2 1,-2 3,-4 "/><path stroke-width="13" d="M590,952c8,-13 8,-13 17,-26 "/><path stroke-width="9" d="M607,926c15,-22 16,-21 30,-43 11,-18 12,-18 21,-38 8,-17 7,-21 12,-35 "/><path stroke-width="13" d="M682,704c0,0 0,0 0,0 "/><path stroke-width="19" d="M682,704c0,0 0,0 0,0 1,1 1,1 2,2 "/><path stroke-width="14" d="M684,706c7,6 7,6 14,12 "/><path stroke-width="10" d="M698,718c20,18 20,18 39,36 "/><path stroke-width="9" d="M737,754c21,21 21,21 41,43 14,17 14,17 28,35 12,14 14,17 24,29 "/><path stroke-width="13" d="M779,542c0,0 0,0 0,0 "/><path stroke-width="19" d="M779,542c0,0 0,0 0,0 "/><path stroke-width="20" d="M779,542c-1,0 -1,0 -1,0 "/><path stroke-width="18" d="M778,542c-3,0 -3,0 -5,1 "/><path stroke-width="14" d="M773,543c-6,2 -7,1 -12,6 "/><path stroke-width="11" d="M761,549c-11,11 -14,11 -20,26 "/><path stroke-width="9" d="M741,575c-8,20 -7,22 -7,44 1,23 2,24 9,46 6,20 6,20 16,39 7,13 7,14 18,25 7,7 8,8 17,10 "/><path stroke-width="10" d="M794,739c8,2 10,2 16,-2 8,-6 9,-8 13,-18 "/><path stroke-width="9" d="M823,719c5,-15 5,-15 7,-31 2,-23 1,-23 -1,-46 -2,-26 -3,-26 -9,-52 -4,-22 -5,-22 -11,-44 -4,-13 -4,-13 -9,-26 "/><path stroke-width="11" d="M800,520c-1,-3 -1,-3 -3,-6 "/><path stroke-width="16" d="M797,514c0,-1 -1,-2 -1,-1 "/><path stroke-width="15" d="M796,513c1,6 1,8 3,15 "/><path stroke-width="10" d="M799,528c5,14 4,15 11,29 "/><path stroke-width="9" d="M810,557c8,16 8,16 18,31 9,12 8,13 20,22 7,7 9,6 18,8 "/><path stroke-width="11" d="M866,618c3,1 3,-1 6,-2 "/><path stroke-width="16" d="M798,412c0,0 0,0 0,0 "/><path stroke-width="20" d="M798,412c0,0 0,0 0,0 "/><path stroke-width="21" d="M798,412c0,1 0,1 0,1 "/><path stroke-width="18" d="M798,413c1,3 2,3 3,5 "/><path stroke-width="13" d="M801,418c8,12 8,12 16,24 "/><path stroke-width="9" d="M817,442c15,19 15,18 31,37 12,14 12,14 25,28 8,8 8,8 16,16 "/><path stroke-width="11" d="M889,523c3,3 3,3 6,6 "/><path stroke-width="15" d="M895,529c1,2 2,2 3,3 "/><path stroke-width="18" d="M898,532c0,1 -1,1 -2,0 "/><path stroke-width="16" d="M896,532c-4,-3 -4,-3 -8,-7 "/><path stroke-width="11" d="M888,525c-8,-10 -8,-10 -15,-21 "/><path stroke-width="9" d="M873,504c-11,-16 -11,-16 -20,-34 -11,-21 -11,-21 -20,-42 -10,-21 -10,-21 -18,-42 -6,-15 -6,-15 -11,-32 -3,-11 -3,-11 -4,-22 "/><path stroke-width="10" d="M800,332c-1,-7 -1,-7 1,-13 "/><path stroke-width="12" d="M801,319c2,-5 2,-7 6,-9 4,-3 6,-4 11,-3 "/><path stroke-width="11" d="M818,307c11,4 12,6 21,13 "/><path stroke-width="9" d="M839,320c16,13 15,14 30,28 16,15 15,16 31,30 11,10 12,10 23,18 "/><path stroke-width="10" d="M923,396c3,2 3,2 6,3 "/><path stroke-width="16" d="M153,390c0,0 0,0 0,0 "/><path stroke-width="20" d="M153,390c0,0 0,0 0,0 "/><path stroke-width="21" d="M153,390c0,0 0,1 0,1 "/><path stroke-width="16" d="M153,391c5,6 4,6 9,11 "/><path stroke-width="10" d="M162,402c17,19 16,20 34,38 "/><path stroke-width="9" d="M196,440c22,21 23,21 46,41 18,15 18,15 37,28 13,9 13,10 27,18 "/><path stroke-width="10" d="M306,527c2,1 2,1 5,1 "/><path stroke-width="15" d="M271,267c0,0 0,0 0,0 "/><path stroke-width="20" d="M271,267c0,0 0,0 0,0 "/><path stroke-width="19" d="M271,267c1,2 1,2 3,4 "/><path stroke-width="13" d="M274,271c5,9 5,9 11,18 "/><path stroke-width="9" d="M285,289c14,21 13,22 29,41 18,22 18,23 38,43 17,17 18,16 36,31 12,11 12,10 25,20 "/><path stroke-width="12" d="M185,728c0,0 0,0 0,0 "/><path stroke-width="18" d="M185,728c0,0 0,0 0,0 2,0 2,0 4,0 "/><path stroke-width="13" d="M189,728c15,1 15,1 30,2 "/><path stroke-width="9" d="M219,730c28,2 28,3 57,4 27,0 28,2 55,-2 27,-4 29,-2 53,-12 26,-11 28,-11 48,-30 21,-21 21,-22 35,-49 18,-32 17,-33 28,-69 12,-40 12,-41 19,-83 7,-43 7,-43 10,-86 3,-46 4,-46 3,-91 -1,-34 -1,-34 -7,-68 -2,-18 0,-20 -9,-36 -6,-12 -13,-12 -20,-19 "/></g></svg>